<svg xmlns="http://www.w3.org/2000/svg" viewBox="0 0 1204.81 354"><defs><style>.cls-1{fill:#fff;}</style></defs><g id="Layer_2" data-name="Layer 2"><g id="Layer_1-2" data-name="Layer 1"><rect width="1204.81" height="354" rx="41.77"/><path class="cls-1" d="M374.83,153.34h26.8l37.8,104.2h-24l-8-22.78H367.84l-8,22.78H336.73Zm26.5,63.41-13.84-39.59-13.7,39.59Z"/><path class="cls-1" d="M519.44,198.74A45,45,0,0,1,524,219.43,44.08,44.08,0,0,1,519.44,240a33.36,33.36,0,0,1-12.58,13.62,34.76,34.76,0,0,1-18.31,4.84q-14.73,0-23.07-10.57V287.3h-21V181H462.8l2.09,10.56a28.4,28.4,0,0,1,9.9-8.33,29.83,29.83,0,0,1,13.91-3.13A34.48,34.48,0,0,1,506.94,185,33.43,33.43,0,0,1,519.44,198.74ZM502.7,219.13q0-9.82-5.21-15.85a17.24,17.24,0,0,0-13.7-6,16.78,16.78,0,0,0-13.54,6q-5.07,6-5.06,15.85,0,10,5.06,16.08a16.68,16.68,0,0,0,13.54,6.1,17.05,17.05,0,0,0,13.7-6.18Q502.69,229,502.7,219.13Z"/><path class="cls-1" d="M607.71,198.74a45,45,0,0,1,4.54,20.69A44.08,44.08,0,0,1,607.71,240a33.36,33.36,0,0,1-12.58,13.62,34.76,34.76,0,0,1-18.31,4.84q-14.73,0-23.07-10.57V287.3h-21V181h18.31l2.09,10.56a28.36,28.36,0,0,1,9.89-8.33A29.87,29.87,0,0,1,577,180.13,34.48,34.48,0,0,1,595.21,185,33.5,33.5,0,0,1,607.71,198.74ZM591,219.13q0-9.82-5.21-15.85a17.2,17.2,0,0,0-13.69-6,16.8,16.8,0,0,0-13.55,6q-5.06,6-5.06,15.85,0,10,5.06,16.08a16.7,16.7,0,0,0,13.55,6.1,17,17,0,0,0,13.69-6.18Q591,229,591,219.13Z"/><path class="cls-1" d="M680.79,236q5.73,4.68,15.26,4.68,7.89,0,12.88-3.34a10.63,10.63,0,0,0,5-9.31,8.44,8.44,0,0,0-2.75-6.62,19.48,19.48,0,0,0-7.74-3.87q-5-1.41-15.41-3.5a81.35,81.35,0,0,1-17.26-5A27.43,27.43,0,0,1,659.36,200q-4.4-6-4.39-16a27.68,27.68,0,0,1,5-16.22,33.69,33.69,0,0,1,13.85-11.24,47.13,47.13,0,0,1,20-4.09,48.41,48.41,0,0,1,20.61,4.24,35.59,35.59,0,0,1,14.44,11.68,29.16,29.16,0,0,1,5.43,16.82H712.42a15.75,15.75,0,0,0-5.65-10.79q-4.92-4.1-12.95-4.09-7.44,0-11.91,3.13a10.24,10.24,0,0,0-4.47,8.93,8.11,8.11,0,0,0,2.68,6.47,20.06,20.06,0,0,0,7.59,3.72q4.92,1.42,15.19,3.35a91.36,91.36,0,0,1,17.56,4.84A26.54,26.54,0,0,1,732,209.53q4.38,5.88,4.39,15.7a29.23,29.23,0,0,1-5.21,17.05,35.21,35.21,0,0,1-14.51,11.83,49.13,49.13,0,0,1-20.92,4.32,52.09,52.09,0,0,1-22.25-4.54,36.89,36.89,0,0,1-15.26-12.58,32,32,0,0,1-5.65-18l21.88.3A17,17,0,0,0,680.79,236Z"/><path class="cls-1" d="M737.58,198.74V181h12.65V159.59h21V181h17.41v17.71H771.22v33.49c0,2.68.57,4.61,1.71,5.81s3.05,1.78,5.73,1.78h10.87v17.72H772.11q-21.87,0-21.88-21.89V198.74Z"/><path class="cls-1" d="M796.3,239.82a44.77,44.77,0,0,1,0-41.08A34.12,34.12,0,0,1,810.44,185a48.89,48.89,0,0,1,42.42,0A34.07,34.07,0,0,1,867,198.74a44.93,44.93,0,0,1,0,41.16,34.12,34.12,0,0,1-14.14,13.69,48.89,48.89,0,0,1-42.42,0A34,34,0,0,1,796.3,239.82Zm54.4-20.54q0-9.83-5.13-15.93t-13.92-6.1q-8.62,0-13.77,6.1t-5.13,15.93q0,9.83,5.13,15.93t13.77,6.1q8.79,0,13.92-6.1T850.7,219.28Z"/><path class="cls-1" d="M927.36,200.08H919q-8.94,0-13.1,5.36T901.76,220v37.51h-21V181h19.05l1.94,11.46a23.75,23.75,0,0,1,8.48-8.56q5.07-2.91,13.55-2.9h3.57Z"/><path class="cls-1" d="M946.78,185A40.92,40.92,0,0,1,967,180.13a44.34,44.34,0,0,1,20.47,4.54,33.83,33.83,0,0,1,13.84,12.8A40.14,40.14,0,0,1,1005.8,224H950.28v.6q.75,8.34,5.36,13.1t12.65,4.76a19.24,19.24,0,0,0,10.65-2.75,13,13,0,0,0,5.58-8.11h20.69a30.13,30.13,0,0,1-5.81,13.69,31.39,31.39,0,0,1-12.2,9.6,41.23,41.23,0,0,1-17.42,3.5q-12.79,0-22.1-4.76a33.58,33.58,0,0,1-14.29-13.62,41.29,41.29,0,0,1-5-20.62q0-11.91,4.84-20.76A34,34,0,0,1,946.78,185Zm32.9,14.59a18.19,18.19,0,0,0-11.83-3.8,17.32,17.32,0,0,0-11.54,4,16.11,16.11,0,0,0-5.58,10.64h34.68Q984.38,203.36,979.68,199.56Z"/><path class="cls-1" d="M351.1,74.64a25.64,25.64,0,0,1,13.18-3.33A22.54,22.54,0,0,1,378.84,76a20.62,20.62,0,0,1,7.37,12.88H379.7a14.9,14.9,0,0,0-5.58-8.54A16.63,16.63,0,0,0,364,77.29a17.41,17.41,0,0,0-9.51,2.62,17.08,17.08,0,0,0-6.32,7.3,27.13,27.13,0,0,0,0,21.45,17.07,17.07,0,0,0,6.32,7.34,17.41,17.41,0,0,0,9.51,2.62,16.4,16.4,0,0,0,10.11-3,15.37,15.37,0,0,0,5.54-8.58h6.51a20.79,20.79,0,0,1-7.3,12.88q-5.8,4.71-14.56,4.72a25.54,25.54,0,0,1-13.18-3.34,22.33,22.33,0,0,1-8.75-9.35,30.31,30.31,0,0,1-3.07-14A30.36,30.36,0,0,1,342.35,84,22.25,22.25,0,0,1,351.1,74.64Z"/><path class="cls-1" d="M394.52,115.25a22.88,22.88,0,0,1,0-20.36,17.29,17.29,0,0,1,6.7-6.89,20.86,20.86,0,0,1,19.69,0,17.29,17.29,0,0,1,6.7,6.89,22.79,22.79,0,0,1,0,20.36,17.26,17.26,0,0,1-6.7,6.88,20.78,20.78,0,0,1-19.69,0A17.26,17.26,0,0,1,394.52,115.25Zm27.63-2.92a17.57,17.57,0,0,0,0-14.52,12,12,0,0,0-4.46-5,13.09,13.09,0,0,0-13.25,0,12,12,0,0,0-4.45,5,17.57,17.57,0,0,0,0,14.52,11.92,11.92,0,0,0,4.45,5,13.09,13.09,0,0,0,13.25,0A11.94,11.94,0,0,0,422.15,112.33Z"/><path class="cls-1" d="M494.09,102.15v22H488V102.52q0-5.53-2.36-8.46a8.14,8.14,0,0,0-6.7-2.92,9.17,9.17,0,0,0-7.52,3.37q-2.75,3.38-2.74,9.21v20.44h-6.14V102.52c0-3.69-.79-6.51-2.39-8.46a8.34,8.34,0,0,0-6.81-2.92,8.83,8.83,0,0,0-7.38,3.56,14.89,14.89,0,0,0-2.73,9.32v20.14H437V86h5.32l.82,5.24a13,13,0,0,1,11.15-5.69,14.36,14.36,0,0,1,7.3,1.83,11.32,11.32,0,0,1,4.76,5.43q4.11-7.26,13.25-7.26a14.07,14.07,0,0,1,10.44,4Q494.09,93.62,494.09,102.15Z"/><path class="cls-1" d="M509,75.2a3.83,3.83,0,1,1-1.12-2.85A3.84,3.84,0,0,1,509,75.2ZM508.08,86v38.18H502V86Z"/><path class="cls-1" d="M550.6,102.9v21.26h-6.14V103.27q0-5.91-2.65-9c-1.78-2.07-4.33-3.11-7.68-3.11a10.35,10.35,0,0,0-8.46,3.75q-3.06,3.73-3.06,10.18v19.09h-6.14V86h5.31l.83,5.16q4.33-5.61,12.57-5.61,7,0,11.19,4.19T550.6,102.9Z"/><path class="cls-1" d="M594.69,122.29q0,17.28-18.94,17.29-7.41,0-12.09-3.37a13.2,13.2,0,0,1-5.42-9.58h6.29a8.34,8.34,0,0,0,3.81,5.54,14.53,14.53,0,0,0,7.86,1.94q12.36,0,12.36-12.05v-4.49q-4.12,7-13.1,7a19.15,19.15,0,0,1-9.47-2.32,16.37,16.37,0,0,1-6.52-6.74,22,22,0,0,1-2.36-10.48,21.28,21.28,0,0,1,2.36-10.18A17.26,17.26,0,0,1,566,88a18.22,18.22,0,0,1,9.44-2.47,16.08,16.08,0,0,1,7.93,1.83,13.15,13.15,0,0,1,5.17,5.21l.82-6.59h5.31Zm-7.63-9.85a16.06,16.06,0,0,0,1.57-7.22,16.73,16.73,0,0,0-1.57-7.38,11.87,11.87,0,0,0-4.46-5,12.09,12.09,0,0,0-6.55-1.8,11.66,11.66,0,0,0-9.17,3.93,14.74,14.74,0,0,0-3.48,10.15,14.73,14.73,0,0,0,3.48,10.14,11.66,11.66,0,0,0,9.17,3.93,12.33,12.33,0,0,0,6.55-1.76A11.69,11.69,0,0,0,587.06,112.44Z"/><path class="cls-1" d="M630.51,117.19a14,14,0,0,0,14,.57,4.85,4.85,0,0,0,2.51-4.23,4.67,4.67,0,0,0-1.2-3.45,6.27,6.27,0,0,0-3.1-1.64c-1.28-.3-3.08-.6-5.43-.9A48.54,48.54,0,0,1,629.2,106a11.28,11.28,0,0,1-5.09-3.11A8.42,8.42,0,0,1,622.17,97a9.88,9.88,0,0,1,1.91-6,12.63,12.63,0,0,1,5.2-4.08,18.18,18.18,0,0,1,7.41-1.46q6.73,0,11,3.15a11.71,11.71,0,0,1,4.68,9H646.2a7.16,7.16,0,0,0-2.92-4.94,10.17,10.17,0,0,0-6.37-2,11.08,11.08,0,0,0-6.28,1.61,4.91,4.91,0,0,0-2.4,4.23,3.94,3.94,0,0,0,1.12,3,5.92,5.92,0,0,0,2.89,1.42q1.75.38,5.35.82a45,45,0,0,1,8.27,1.65,11.22,11.22,0,0,1,5.24,3.37,9.37,9.37,0,0,1,2,6.29,9.64,9.64,0,0,1-2,6.06,12.94,12.94,0,0,1-5.46,4,19.81,19.81,0,0,1-7.64,1.43q-7.49,0-12-3.45a11.54,11.54,0,0,1-4.61-9.58h6.14A7.12,7.12,0,0,0,630.51,117.19Z"/><path class="cls-1" d="M661.09,115.25a22.88,22.88,0,0,1,0-20.36,17.29,17.29,0,0,1,6.7-6.89,20.86,20.86,0,0,1,19.69,0,17.22,17.22,0,0,1,6.7,6.89,22.79,22.79,0,0,1,0,20.36,17.2,17.2,0,0,1-6.7,6.88,20.78,20.78,0,0,1-19.69,0A17.26,17.26,0,0,1,661.09,115.25Zm27.63-2.92a17.57,17.57,0,0,0,0-14.52,11.9,11.9,0,0,0-4.46-5,13.09,13.09,0,0,0-13.25,0,12,12,0,0,0-4.45,5,17.57,17.57,0,0,0,0,14.52,11.92,11.92,0,0,0,4.45,5,13.09,13.09,0,0,0,13.25,0A11.87,11.87,0,0,0,688.72,112.33Z"/><path class="cls-1" d="M704.66,115.25a22.88,22.88,0,0,1,0-20.36,17.29,17.29,0,0,1,6.7-6.89,20.86,20.86,0,0,1,19.69,0,17.29,17.29,0,0,1,6.7,6.89,22.79,22.79,0,0,1,0,20.36,17.26,17.26,0,0,1-6.7,6.88,20.78,20.78,0,0,1-19.69,0A17.26,17.26,0,0,1,704.66,115.25Zm27.62-2.92a17.47,17.47,0,0,0,0-14.52,11.88,11.88,0,0,0-4.45-5,13.09,13.09,0,0,0-13.25,0,11.88,11.88,0,0,0-4.45,5,17.47,17.47,0,0,0,0,14.52,11.85,11.85,0,0,0,4.45,5,13.09,13.09,0,0,0,13.25,0A11.85,11.85,0,0,0,732.28,112.33Z"/><path class="cls-1" d="M781.32,102.9v21.26h-6.14V103.27q0-5.91-2.66-9t-7.67-3.11a10.33,10.33,0,0,0-8.46,3.75q-3.07,3.73-3.07,10.18v19.09h-6.14V86h5.32l.82,5.16q4.33-5.61,12.58-5.61,7,0,11.19,4.19T781.32,102.9Z"/><path class="cls-1" d="M804.45,91.59V86h6.88V75.27h6.14V86h9.66v5.61h-9.66v22.54a4.92,4.92,0,0,0,.94,3.4,4.28,4.28,0,0,0,3.26,1h6.66v5.62h-7q-5.38,0-7.67-2.4c-1.52-1.6-2.29-4.12-2.29-7.56V91.59Z"/><path class="cls-1" d="M832.74,115.25a22.88,22.88,0,0,1,0-20.36A17.25,17.25,0,0,1,839.45,88a20.84,20.84,0,0,1,19.68,0,17.22,17.22,0,0,1,6.7,6.89,22.79,22.79,0,0,1,0,20.36,17.2,17.2,0,0,1-6.7,6.88,20.76,20.76,0,0,1-19.68,0A17.22,17.22,0,0,1,832.74,115.25Zm27.63-2.92a17.57,17.57,0,0,0,0-14.52,11.9,11.9,0,0,0-4.46-5,13.09,13.09,0,0,0-13.25,0,12,12,0,0,0-4.45,5,17.57,17.57,0,0,0,0,14.52,11.92,11.92,0,0,0,4.45,5,13.09,13.09,0,0,0,13.25,0A11.87,11.87,0,0,0,860.37,112.33Z"/><path class="cls-1" d="M890.54,91.59V86h6.88V75.27h6.14V86h9.66v5.61h-9.66v22.54a4.92,4.92,0,0,0,.94,3.4,4.27,4.27,0,0,0,3.25,1h6.67v5.62h-7q-5.39,0-7.67-2.4t-2.29-7.56V91.59Z"/><path class="cls-1" d="M953,102.9v21.26h-6.14V103.27q0-5.91-2.7-9t-7.71-3.11A10.36,10.36,0,0,0,928,94.89q-3.11,3.73-3.1,10.18v19.09h-6.14V71.76h6.14V92.27a14.66,14.66,0,0,1,5-4.87,14.47,14.47,0,0,1,7.6-1.87q7,0,11.23,4.19T953,102.9Z"/><path class="cls-1" d="M968.16,88a18.23,18.23,0,0,1,9.44-2.43,19.3,19.3,0,0,1,9.28,2.17A15.71,15.71,0,0,1,993.24,94a20.44,20.44,0,0,1,2.47,9.65c0,.55-.05,1.43-.15,2.62H965.92v.53a12.82,12.82,0,0,0,3.44,9,11.5,11.5,0,0,0,8.61,3.37,11.73,11.73,0,0,0,7-2.06,9.86,9.86,0,0,0,3.85-5.72H995a15.86,15.86,0,0,1-5.62,9.54,16.71,16.71,0,0,1-11,3.71,19.71,19.71,0,0,1-10-2.44,16.76,16.76,0,0,1-6.62-6.88,21.55,21.55,0,0,1-2.36-10.22,22.07,22.07,0,0,1,2.28-10.26A16.74,16.74,0,0,1,968.16,88Zm17.56,5.65a12.06,12.06,0,0,0-8.05-2.69A11.38,11.38,0,0,0,970,93.76a10.84,10.84,0,0,0-3.74,7.41h23.06A10.76,10.76,0,0,0,985.72,93.61Z"/><g id="Apple"><path class="cls-1" d="M269.66,137.05A53.09,53.09,0,0,0,276.14,231c-.95,2.68-1.84,5.46-2.9,8.18a146,146,0,0,1-25.21,41,31.47,31.47,0,0,1-42,9.46,49.82,49.82,0,0,0-44.1,0,62.23,62.23,0,0,1-6.78,2.58,27,27,0,0,1-28.46-5.49,122.5,122.5,0,0,1-26.8-35.83,137.65,137.65,0,0,1-16.67-76.81,64.23,64.23,0,0,1,43.42-57.34A49.19,49.19,0,0,1,159.85,118c23.75,9.22,19,8.48,42.22,0a56.47,56.47,0,0,1,62,12.23,44.77,44.77,0,0,1,3.88,4.49C268.61,135.4,269.1,136.32,269.66,137.05Z"/><path class="cls-1" d="M226.41,56.61a49.36,49.36,0,0,1-44.13,54.08c-.85.08-1.71.15-2.56.19C173.2,89,200.71,56.83,226.41,56.61Z"/></g></g></g></svg>