<svg xmlns="http://www.w3.org/2000/svg" viewBox="0 0 1204.81 354"><defs><style>.cls-1{fill:#fff;}</style></defs><g id="Layer_2" data-name="Layer 2"><g id="Layer_1-2" data-name="Layer 1"><rect width="1204.81" height="354" rx="41.77"/><path class="cls-1" d="M220.07,167.09,119.1,65.85,247.57,139.6l-27.5,27.49ZM92.74,59.9a17.78,17.78,0,0,0-9.92,16.15V278a17.78,17.78,0,0,0,9.92,16.15L210.14,177ZM287.28,163.11l-26.95-15.6L230.27,177l30.06,29.51,27.5-15.6c8.23-6.54,8.23-21.27-.55-27.82ZM119.1,288.2l128.47-73.75L220.07,187Z"/><path class="cls-1" d="M365.08,159q11.69-6.56,27.47-6.55a50.29,50.29,0,0,1,22.18,4.76,40.59,40.59,0,0,1,15.85,13.4A43,43,0,0,1,438,190.4h-22a24.79,24.79,0,0,0-8.34-13.91q-6.25-5.15-15.63-5.14a26.21,26.21,0,0,0-15,4.32,27.63,27.63,0,0,0-9.83,12.05,43.46,43.46,0,0,0-3.42,17.72q0,15.33,7.52,24.71T392,239.52a28.84,28.84,0,0,0,17.12-5.28q7.44-5.28,8.93-15.55v-1.34H392.1V199.63h46.59v57.91H423.21l-2.38-13a34.62,34.62,0,0,1-12.36,10,39.77,39.77,0,0,1-18,3.87q-14.73,0-26-6.55a44.52,44.52,0,0,1-17.42-18.61q-6.18-12.06-6.17-27.83,0-15.93,6.25-27.91A44.14,44.14,0,0,1,365.08,159Z"/><path class="cls-1" d="M454.1,239.82a44.77,44.77,0,0,1,0-41.08A34.07,34.07,0,0,1,468.24,185a48.89,48.89,0,0,1,42.42,0,34.18,34.18,0,0,1,14.14,13.77,44.93,44.93,0,0,1,0,41.16,34.24,34.24,0,0,1-14.14,13.69,48.89,48.89,0,0,1-42.42,0A34,34,0,0,1,454.1,239.82Zm54.4-20.54q0-9.83-5.14-15.93t-13.91-6.1q-8.64,0-13.77,6.1t-5.14,15.93q0,9.83,5.14,15.93t13.77,6.1q8.78,0,13.91-6.1T508.5,219.28Z"/><path class="cls-1" d="M540.58,239.82a44.77,44.77,0,0,1,0-41.08A34.07,34.07,0,0,1,554.72,185a48.89,48.89,0,0,1,42.42,0,34.12,34.12,0,0,1,14.14,13.77,44.93,44.93,0,0,1,0,41.16,34.18,34.18,0,0,1-14.14,13.69,48.89,48.89,0,0,1-42.42,0A34,34,0,0,1,540.58,239.82ZM595,219.28q0-9.83-5.13-15.93t-13.92-6.1q-8.64,0-13.77,6.1T557,219.28q0,9.83,5.14,15.93t13.77,6.1q8.77,0,13.92-6.1T595,219.28Z"/><path class="cls-1" d="M701.56,255.3q0,15-10,24t-31,8.93q-16.22,0-26.2-7.15t-10.71-20.24h21.13a14.44,14.44,0,0,0,5.88,8.48q4.39,3,11.54,3,8.93,0,13.84-4.46T681,254.56v-8q-8.32,10.57-23.66,10.57a35,35,0,0,1-18.16-4.76,33,33,0,0,1-12.58-13.48,47.56,47.56,0,0,1,0-40.56,32.73,32.73,0,0,1,12.65-13.54A35.32,35.32,0,0,1,657.5,180q15,0,23.81,11.61L683.1,181h18.46Zm-20.69-36.47q0-9.68-5.07-15.77A16.68,16.68,0,0,0,662.26,197a17,17,0,0,0-13.62,6q-5.13,6-5.14,15.71t5.14,15.62a17.09,17.09,0,0,0,13.62,6q8.49,0,13.54-6T680.87,218.83Z"/><path class="cls-1" d="M734.3,153.34v104.2h-21V153.34Z"/><path class="cls-1" d="M761.47,185a40.89,40.89,0,0,1,20.17-4.84,44.3,44.3,0,0,1,20.46,4.54A33.92,33.92,0,0,1,816,197.47a38,38,0,0,1,5.13,19.43,39,39,0,0,1-.59,7.14H765v.6q.74,8.34,5.35,13.1T783,242.5a19.23,19.23,0,0,0,10.64-2.75,13,13,0,0,0,5.58-8.11h20.69a30.11,30.11,0,0,1-5.8,13.69,31.5,31.5,0,0,1-12.21,9.6,41.22,41.22,0,0,1-17.41,3.5q-12.81,0-22.11-4.76a33.63,33.63,0,0,1-14.29-13.62,41.39,41.39,0,0,1-5-20.62,42.68,42.68,0,0,1,4.84-20.76A34,34,0,0,1,761.47,185Zm32.89,14.59a18.19,18.19,0,0,0-11.83-3.8,17.34,17.34,0,0,0-11.54,4,16.16,16.16,0,0,0-5.58,10.64h34.68Q799.06,203.36,794.36,199.56Z"/><path class="cls-1" d="M927.58,157.58a31.15,31.15,0,0,1,13.25,12.13A35.14,35.14,0,0,1,945.52,188a34.73,34.73,0,0,1-4.69,18.24,31.17,31.17,0,0,1-13.25,12.05,43.81,43.81,0,0,1-19.72,4.25h-20.1v35H865.44V153.34h42.42A43.94,43.94,0,0,1,927.58,157.58ZM905.78,204q7.88,0,12.5-4.32c3.07-2.87,4.61-6.75,4.61-11.61s-1.54-8.88-4.61-11.76S911,172,905.78,172h-18v32Z"/><path class="cls-1" d="M974.54,153.34v104.2h-21V153.34Z"/><path class="cls-1" d="M1061.62,257.54H1050.9q-14.43,0-14.14-12.51a29,29,0,0,1-10.27,10,29.71,29.71,0,0,1-14.73,3.42q-12.81,0-20.62-5.88T983.33,236q0-12.21,9-18.83t26.12-6.62h15.19v-3.72a10,10,0,0,0-3.87-8.26q-3.87-3.06-10.42-3.06a16.58,16.58,0,0,0-9.53,2.54,10,10,0,0,0-4.46,6.84H985.11q1-11.76,10.42-18.23t24.86-6.48q16.23,0,25.08,7.15t8.86,20.69v26.94c0,1.89.39,3.18,1.19,3.87a5.56,5.56,0,0,0,3.72,1h2.38Zm-43.32-33.05q-6.54,0-10.19,2.61a8.51,8.51,0,0,0-3.65,7.36,7.7,7.7,0,0,0,3,6.4,13.09,13.09,0,0,0,8.26,2.39q8.19,0,13-4.69t4.92-12.58v-1.49Z"/><path class="cls-1" d="M1097.79,236,1116,181h22.48l-33.94,87.37a70.85,70.85,0,0,1-5.06,10.94,16.16,16.16,0,0,1-6,6,19.6,19.6,0,0,1-9.45,2h-20.39V269.59h11.61c2.68,0,4.61-.44,5.8-1.34s2.33-2.63,3.43-5.21l1.93-5.06-29.47-77h22.33Z"/><path class="cls-1" d="M348.21,87.17a20.69,20.69,0,0,1,10.64-2.69,18.18,18.18,0,0,1,11.75,3.81,16.69,16.69,0,0,1,5.95,10.39h-5.26a12,12,0,0,0-4.5-6.89,13.38,13.38,0,0,0-8.19-2.47,14,14,0,0,0-7.67,2.11,13.79,13.79,0,0,0-5.1,5.89,21.93,21.93,0,0,0,0,17.31,13.75,13.75,0,0,0,5.1,5.92,14,14,0,0,0,7.67,2.11,13.2,13.2,0,0,0,8.16-2.44,12.4,12.4,0,0,0,4.47-6.92h5.26a16.81,16.81,0,0,1-5.89,10.39,18,18,0,0,1-11.75,3.81,20.69,20.69,0,0,1-10.64-2.69,18,18,0,0,1-7.06-7.55,26.78,26.78,0,0,1,0-22.51A18,18,0,0,1,348.21,87.17Z"/><path class="cls-1" d="M411.52,124.72a21,21,0,0,1-20.9,0,19.19,19.19,0,0,1-7.16-7.67,25.06,25.06,0,0,1,0-22.11,19.22,19.22,0,0,1,7.16-7.68,21,21,0,0,1,20.9,0,19.22,19.22,0,0,1,7.16,7.68,25.06,25.06,0,0,1,0,22.11A19.19,19.19,0,0,1,411.52,124.72Zm-18.15-4.2a14.92,14.92,0,0,0,15.4,0A14.48,14.48,0,0,0,414,114.6a20.76,20.76,0,0,0,0-17.22,14.55,14.55,0,0,0-5.23-5.92,14.92,14.92,0,0,0-15.4,0,14.55,14.55,0,0,0-5.23,5.92,20.76,20.76,0,0,0,0,17.22A14.48,14.48,0,0,0,393.37,120.52Z"/><path class="cls-1" d="M434.53,84.85l15,35.1,14.8-35.1h6.52v42.28h-5.13V93.79l-14,33.34H447L433,93.79v33.34h-5.13V84.85Z"/><path class="cls-1" d="M484.31,84.85v42.28h-5.26V84.85Z"/><path class="cls-1" d="M492.52,84.85h4.83l22.72,32.62V84.85h5.13v42.28h-4.83L497.66,94.51v32.62h-5.14Z"/><path class="cls-1" d="M541.39,87.17A20.66,20.66,0,0,1,552,84.48a18.16,18.16,0,0,1,11.75,3.81,16.61,16.61,0,0,1,6,10.33h-5.19A12.3,12.3,0,0,0,560,91.76a13.31,13.31,0,0,0-8.1-2.44,14.1,14.1,0,0,0-7.7,2.11A13.84,13.84,0,0,0,539,97.35a21.53,21.53,0,0,0,0,17.28,13.64,13.64,0,0,0,12.75,8,15.63,15.63,0,0,0,6.92-1.48,11.31,11.31,0,0,0,4.77-4.22,11.88,11.88,0,0,0,1.72-6.44v-1.45H552.51v-4.83h17.82v22.89H566l-.55-6.7a15.24,15.24,0,0,1-5.25,4.95,16.1,16.1,0,0,1-8.46,2.12,19.7,19.7,0,0,1-10.33-2.72,18.55,18.55,0,0,1-7-7.58,24.17,24.17,0,0,1-2.5-11.21,24.59,24.59,0,0,1,2.47-11.24A18,18,0,0,1,541.39,87.17Z"/><path class="cls-1" d="M601.43,120.16a12.21,12.21,0,0,0,8,2.56,11.88,11.88,0,0,0,7-1.9,6.1,6.1,0,0,0,2.69-5.28,5.23,5.23,0,0,0-1.48-3.93,9,9,0,0,0-3.8-2.15,56.4,56.4,0,0,0-6.32-1.36,26.21,26.21,0,0,1-10.08-3.56q-3.75-2.48-3.75-8a11.22,11.22,0,0,1,1.81-6.32,11.9,11.9,0,0,1,5.11-4.26,17.93,17.93,0,0,1,7.52-1.51,18.21,18.21,0,0,1,7.91,1.64,13,13,0,0,1,7.67,11.29h-5.19a8.69,8.69,0,0,0-3.32-5.92A12.71,12.71,0,0,0,601.43,91,6.06,6.06,0,0,0,599,96.2a4.91,4.91,0,0,0,1.45,3.78,9.17,9.17,0,0,0,3.74,2,50.88,50.88,0,0,0,6.28,1.36,26.71,26.71,0,0,1,10.15,3.6q3.81,2.51,3.81,8.06a11.36,11.36,0,0,1-1.91,6.47,12.53,12.53,0,0,1-5.31,4.41,18.63,18.63,0,0,1-7.82,1.57,19.57,19.57,0,0,1-8.64-1.79,13.43,13.43,0,0,1-5.71-5,15,15,0,0,1-2.21-7.4H598A9.31,9.31,0,0,0,601.43,120.16Z"/><path class="cls-1" d="M660.09,124.72a21,21,0,0,1-20.9,0,19.12,19.12,0,0,1-7.16-7.67,25.06,25.06,0,0,1,0-22.11,19.15,19.15,0,0,1,7.16-7.68,21,21,0,0,1,20.9,0,19.29,19.29,0,0,1,7.16,7.68,25.15,25.15,0,0,1,0,22.11A19.26,19.26,0,0,1,660.09,124.72Zm-18.16-4.2a14.94,14.94,0,0,0,15.41,0,14.46,14.46,0,0,0,5.22-5.92,20.66,20.66,0,0,0,0-17.22,14.52,14.52,0,0,0-5.22-5.92,14.94,14.94,0,0,0-15.41,0,14.6,14.6,0,0,0-5.22,5.92,20.76,20.76,0,0,0,0,17.22A14.53,14.53,0,0,0,641.93,120.52Z"/><path class="cls-1" d="M705.51,124.72a21,21,0,0,1-20.9,0,19.19,19.19,0,0,1-7.16-7.67,25.06,25.06,0,0,1,0-22.11,19.22,19.22,0,0,1,7.16-7.68,21,21,0,0,1,20.9,0,19.22,19.22,0,0,1,7.16,7.68,25.06,25.06,0,0,1,0,22.11A19.19,19.19,0,0,1,705.51,124.72Zm-18.15-4.2a14.92,14.92,0,0,0,15.4,0A14.48,14.48,0,0,0,708,114.6a20.76,20.76,0,0,0,0-17.22,14.55,14.55,0,0,0-5.23-5.92,14.92,14.92,0,0,0-15.4,0,14.55,14.55,0,0,0-5.23,5.92,20.76,20.76,0,0,0,0,17.22A14.48,14.48,0,0,0,687.36,120.52Z"/><path class="cls-1" d="M721.88,84.85h4.83l22.72,32.62V84.85h5.13v42.28h-4.83L727,94.51v32.62h-5.13Z"/><path class="cls-1" d="M808.68,84.85v4.83H795v37.45h-5.25V89.68H776V84.85Z"/><path class="cls-1" d="M840.16,124.72a21,21,0,0,1-20.91,0,19.17,19.17,0,0,1-7.15-7.67,25.06,25.06,0,0,1,0-22.11,19.2,19.2,0,0,1,7.15-7.68,21,21,0,0,1,20.91,0,19.2,19.2,0,0,1,7.15,7.68,25.06,25.06,0,0,1,0,22.11A19.17,19.17,0,0,1,840.16,124.72ZM822,120.52a14.94,14.94,0,0,0,15.41,0,14.53,14.53,0,0,0,5.22-5.92,20.66,20.66,0,0,0,0-17.22,14.6,14.6,0,0,0-5.22-5.92,14.94,14.94,0,0,0-15.41,0,14.6,14.6,0,0,0-5.22,5.92,20.76,20.76,0,0,0,0,17.22A14.53,14.53,0,0,0,822,120.52Z"/></g></g></svg>